<?xml version="1.0" standalone="no"?>
<svg xmlns="http://www.w3.org/2000/svg" viewBox="0 0 101.416 117.104" width="101.416" height="117.104"><polygon fill="none" stroke="#000000" stroke-width="3" points="99.916,30.026 99.916,87.078 50.708,115.604 1.5,87.078 1.5,30.026 50.708,1.5"></polygon><path fill="#000000" fill-rule="nonzero" d="M14.56 0L14.56 3.47L9.21 3.47L9.21 19.94L5.32 19.94L5.32 3.47L0 3.47L0 0L14.56 0ZM27.38 0L31.44 0L25.17 18.82Q24.67 20.10 23.38 20.10L23.38 20.10Q22.04 20.10 21.53 18.82L21.53 18.82L15.34 0L19.38 0L23.38 12.99L27.38 0Z" transform="translate(34.986, 22.5)"></path><g fill="#000000" color="#000000" transform="translate(28.708 50.604) scale(0.55)"><svg width="80.0" height="80.0" x="0.0" y="0.0" viewBox="0 0 80 80"><path style="" d="m 41.6875,25.25 c -0.520822,0 -0.96412,0.200743 -1.3125,0.53125 -0.0309,0.02932 -0.06474,0.06241 -0.09375,0.09375 l -6.21875,5.5 0.15625,0.1875 -3.375,3.15625 -0.0625,0.0625 c -0.94786,0.93309 -0.975806,2.459641 -0.0625,3.4375 3.343278,3.415159 6.062438,6.196042 9,9.21875 l 0,2.875 19.71875,0 0,-15.03125 0.375,0.71875 0.25,-0.15625 c 3.861425,5.03353 6.854407,9.004943 10.59375,14 0.505085,0.645803 1.416595,0.754985 2.0625,0.25 l 1.5625,-1.21875 c 0.645812,-0.505089 0.755181,-1.41675 0.25,-2.0625 C 70.205279,41.198291 68.498723,38.820379 64.0625,32.96875 l 0.875,-0.625 C 62.050376,29.026629 60.805754,25.419001 57.8125,25.28125 57.702936,25.260861 57.583742,25.25 57.46875,25.25 l -3.0625,0 C 52.613544,30.61591 50.870049,35.988712 50.0625,41.625 50.612647,41.844593 51,42.370353 51,43 c 0,0.02078 8.4e-4,0.04192 0,0.0625 l 0,2.25 -0.40625,0 c -0.04895,0 -0.09375,0.0448 -0.09375,0.09375 0,0.04895 0.0448,0.0625 0.09375,0.0625 l 0.40625,0 0,1.4375 c 0.06471,0 0.125,0.06029 0.125,0.125 l 0,0.0625 c 0,0.06471 -0.06029,0.125 -0.125,0.125 l -1.375,0 c -0.06471,0 -0.125,-0.06029 -0.125,-0.125 l 0,-0.0625 c 0,-0.05235 0.04648,-0.110062 0.09375,-0.125 l 0,-2.4375 C 49.563225,44.470625 49.531,44.5 49.5,44.5 48.674256,44.5 48,43.825744 48,43 48,42.335964 48.430468,41.788041 49.03125,41.59375 46.429156,36.333008 45.286259,30.731605 43.875,25.25 z m 3.25,0 c 1.283812,4.949603 2.43534,9.876419 4.5,14.53125 0.883634,-5.004754 2.340945,-9.796773 3.90625,-14.53125 z m 14.5,1.6875 4.25,6.28125 -0.84375,0.59375 -3.71875,-5.59375 z m -19.0625,0.125 0,1.34375 -4.9375,4.53125 -0.65625,-0.75 z m -0.65625,6.3125 0,7 -3.65625,-3.75 1.4375,-1.3125 0.40625,0.46875 z m 0,17.9375 0,0.75 0,5.75 c 0,0.0209 -6.35e-4,0.04176 0,0.0625 L 39.75,91.25 l 0.9375,0.0625 0,1.03125 c 0,0.819884 0.680115,1.46875 1.5,1.46875 l 4.90625,0 c 0.819885,0 1.5,-0.648866 1.5,-1.46875 l 0,-0.5 L 49,91.875 49,63 l 1,28.875 0.46875,-0.03125 0,0.34375 c 0,0.819885 0.680125,1.46875 1.5,1.46875 l 4.90625,0 c 0.819885,0 1.5,-0.648865 1.5,-1.46875 l 0,-0.78125 L 59,91.375 59.375,58.28125 c 0.03569,-0.149087 0.0625,-0.30819 0.0625,-0.46875 l 0,-3.84375 0.03125,-2.65625 -0.03125,0 -1.625,0 c 0.03829,0.162177 0.02892,0.356163 0.0625,0.5625 0.06294,0.386758 0.172962,0.844726 0.21875,1.40625 0.09159,1.123047 0.1434,2.582326 0.1875,4.28125 0.08825,3.397846 0.100625,7.753227 0.09375,12.1875 -0.0069,4.434273 -0.01849,8.983585 0,12.71875 0.01849,3.735165 0.06421,6.676775 0.21875,7.90625 L 57.5625,90.5 c -0.173987,-1.384183 -0.200212,-4.287765 -0.21875,-8.03125 -0.01854,-3.743485 -0.0069,-8.287067 0,-12.71875 0.0069,-4.431683 -0.0061,-8.747275 -0.09375,-12.125 -0.04383,-1.688862 -0.09861,-3.128675 -0.1875,-4.21875 -0.04445,-0.545038 -0.100175,-1.030369 -0.15625,-1.375 -0.232958,-0.872283 -0.195047,-0.690166 -0.203125,-0.71875 l -14.265625,0 c -0.258447,0.684683 -0.262368,1.44043 -0.3125,2.09375 -0.08889,1.090075 -0.174913,2.529888 -0.21875,4.21875 -0.08766,3.377725 -0.100625,7.693317 -0.09375,12.125 0.0069,4.431683 0.04979,8.975265 0.03125,12.71875 -0.01853,3.743485 -0.107259,6.647067 -0.28125,8.03125 l -0.96875,-0.125 c 0.15455,-1.229475 0.200263,-4.171085 0.21875,-7.90625 0.01849,-3.735165 0.0069,-8.284477 0,-12.71875 -0.0069,-4.434273 0.0056,-8.789654 0.09375,-12.1875 0.04409,-1.698924 0.09591,-3.158203 0.1875,-4.28125 0.04579,-0.561524 0.09331,-1.019492 0.15625,-1.40625 0.03358,-0.206337 0.07634,-0.400323 0.125,-0.5625 z" transform="scale(0.8,0.8)" fill="currentColor" fill-opacity="1" stroke="none"></path><path style="" d="m 40.02,5.7928126 c -4.047327,0.057461 -5.807909,1.8843924 -5.688749,5.4112504 1.877404,-0.648926 3.78174,-0.976665 5.688749,-0.97125 1.782185,0.0051 3.567249,0.302041 5.365,0.855625 C 45.37483,7.4529212 45.072558,6.2668566 40.02,5.7928126 z" fill="currentColor" fill-opacity="1" stroke="none"></path><path style="" d="m 40.02,10.810938 c -1.584934,-0.0042 -3.152617,0.252247 -4.7175,0.716875 3.575065,0.389042 6.639014,0.254851 9.435,-0.02313 -1.585252,-0.444591 -3.156434,-0.689614 -4.7175,-0.693745 z" fill="currentColor" fill-opacity="1" stroke="none"></path><path style="" d="m 34.446875,11.805313 c -0.02307,0.0082 -0.04627,0.01544 -0.06938,0.02313 0.0055,0.06219 -0.0066,0.121868 0,0.185 -0.0022,0.0072 0.0022,0.01594 0,0.02312 C 34.204553,12.592601 34.1,13.181114 34.1,13.794062 c 0,3.269062 2.650933,5.920001 5.92,5.920001 3.269057,0 5.92,-2.650939 5.92,-5.920001 0,-0.703481 -0.142712,-1.366566 -0.37,-1.988749 -3.229283,0.354756 -6.809716,0.556723 -11.123125,0 z" fill="currentColor" fill-opacity="1" stroke="none"></path><path style="text-indent:0;text-transform:none;direction:ltr;block-progression:tb;baseline-shift:baseline;color:#000000;enable-background:accumulate;" d="m 65.4817,40.716449 0.01378,-0.108794 c 0.03125,-0.232014 -0.07626,-0.435595 -0.193375,-0.621548 -0.115692,-0.183687 -0.245226,-0.358945 -0.303017,-0.512975 -7.13e-4,-0.0019 -0.0032,-0.0043 -0.0039,-0.0062 -0.05003,-0.163757 -0.131782,-0.310831 -0.273432,-0.383781 -0.07187,-0.03702 -0.158941,-0.04561 -0.243262,-0.02002 -0.07557,0.02294 -0.143387,0.0766 -0.208403,0.144995 l -0.002,-0.0031 c -0.322667,0.218937 -0.661919,0.432348 -0.968927,0.696102 l -0.05311,0.04668 0.01169,0.06656 c 0.10566,0.529411 0.535756,0.854559 0.712104,1.241594 l 0.04936,0.112324 0.108391,-0.05557 c 0.231619,-0.113917 0.433703,-0.2727 0.632449,-0.39606 0.198745,-0.12336 0.389531,-0.208604 0.615649,-0.202692 l 0.106001,0.0025 z m -0.235467,-0.220736 c -0.229653,0.02515 -0.434764,0.107801 -0.613995,0.219048 -0.183384,0.113827 -0.349659,0.232175 -0.518673,0.328378 -0.205268,-0.372153 -0.494377,-0.660297 -0.594235,-1.007316 0.27425,-0.226283 0.578282,-0.42625 0.882791,-0.632867 l 0.01242,-0.0079 0.01046,-0.01097 c 0.05124,-0.05852 0.09152,-0.08456 0.119473,-0.09304 0.02795,-0.0085 0.0444,-0.0076 0.06822,0.0047 0.04764,0.02453 0.118773,0.11954 0.157307,0.248467 l 0.002,0.0031 0.002,0.0031 c 0.0755,0.206883 0.215022,0.386832 0.324334,0.56039 0.0885,0.140519 0.136797,0.269421 0.147968,0.3849 z" fill="currentColor" fill-opacity="1" stroke="none" marker="none" visibility="visible" display="inline" overflow="visible"></path><path style="text-indent:0;text-transform:none;direction:ltr;block-progression:tb;baseline-shift:baseline;color:#000000;enable-background:accumulate;" d="M 63.577258,40.951959 63.449446,40.75008 c -0.471369,0.298428 -1.05608,0.620652 -1.537273,0.925406 l 0.127812,0.201878 c 0.471301,-0.298488 1.056036,-0.620729 1.537273,-0.925405 z" fill="currentColor" fill-opacity="1" stroke="none" marker="none" visibility="visible" display="inline" overflow="visible"></path><path style="text-indent:0;text-transform:none;direction:ltr;block-progression:tb;baseline-shift:baseline;color:#000000;enable-background:accumulate;" d="m 62.804248,41.902537 0.06256,-0.23104 c -0.204211,-0.05688 -0.419329,0.02886 -0.596993,0.06036 -0.08883,0.01575 -0.162781,0.01809 -0.199065,0.0086 -0.01717,-0.0045 -0.01631,-0.02325 -0.02277,-0.02909 0.113744,-0.173437 0.220136,-0.350208 0.351,-0.483265 l -0.170467,-0.166173 c -0.175222,0.178161 -0.300915,0.391205 -0.425651,0.578387 l -0.02744,0.03912 0.01003,0.05021 c 0.02433,0.123252 0.120894,0.215112 0.222731,0.241851 0.101836,0.02674 0.204192,0.01183 0.305066,-0.0061 0.201748,-0.03577 0.419234,-0.08285 0.490992,-0.06286 z" fill="currentColor" fill-opacity="1" stroke="none" marker="none" visibility="visible" display="inline" overflow="visible"></path><path style="text-indent:0;text-transform:none;direction:ltr;block-progression:tb;baseline-shift:baseline;color:#000000;enable-background:accumulate;" d="m 61.162231,43.377188 c 0.08472,-0.06162 0.166569,-0.139213 0.2404,-0.204408 0.07383,-0.0652 0.142228,-0.119847 0.179623,-0.135475 l 0.01439,-0.0048 0.01242,-0.0079 c 0.169228,-0.125326 0.330458,-0.251974 0.50015,-0.364508 l 0.153325,-0.101422 -0.153708,-0.09847 c -0.377805,-0.247359 -0.681845,-0.652488 -0.836559,-1.067084 l -0.05184,-0.136858 -0.124233,0.07865 c -0.413238,0.261625 -0.833914,0.513117 -1.245437,0.788499 l -0.09318,0.05899 0.05278,0.09711 c 0.11536,0.21157 0.293269,0.352571 0.449393,0.489915 0.15507,0.136416 0.286268,0.267126 0.346609,0.437518 4.12e-4,0.0012 0.0016,0.0019 0.002,0.0031 0.02357,0.07119 0.05447,0.131762 0.09572,0.178686 0.042,0.04777 0.101145,0.08054 0.161058,0.08946 0.119826,0.01784 0.212389,-0.03947 0.29711,-0.101089 z m -0.140234,-0.194013 c -0.0658,0.04786 -0.117345,0.05833 -0.124748,0.05723 -0.0037,-5.51e-4 -0.0044,0.0017 -0.01604,-0.0116 -0.01167,-0.01327 -0.03053,-0.04332 -0.04771,-0.09597 l 0.0031,-0.002 c -0.08277,-0.238271 -0.2555,-0.399454 -0.416571,-0.54115 -0.127772,-0.112403 -0.241748,-0.218806 -0.329649,-0.335137 0.338209,-0.222273 0.684842,-0.435338 1.031135,-0.652823 0.160874,0.362809 0.403904,0.705223 0.726021,0.954337 -0.121324,0.0858 -0.240449,0.174233 -0.356969,0.260806 -0.009,0.0038 -0.01615,0.01148 -0.02485,0.01573 -0.08185,0.04006 -0.152612,0.100756 -0.223106,0.163004 -0.07798,0.06886 -0.154826,0.139681 -0.220624,0.187538 z" fill="currentColor" fill-opacity="1" stroke="none" marker="none" visibility="visible" display="inline" overflow="visible"></path><path style="text-indent:0;text-transform:none;direction:ltr;block-progression:tb;baseline-shift:baseline;color:#000000;enable-background:accumulate;" d="m 60.136369,42.121052 0.143091,-0.186308 c -0.120076,-0.09055 -0.288971,-0.336508 -0.378988,-0.577997 -0.04501,-0.120744 -0.07043,-0.242746 -0.07251,-0.341307 -0.0021,-0.09856 0.02015,-0.168247 0.058,-0.210752 l 0.0031,-0.002 0.0011,-0.0051 c 0.149192,-0.199692 0.357432,-0.359486 0.578844,-0.501345 l -0.127812,-0.201879 c -0.229333,0.146935 -0.458069,0.322401 -0.633095,0.553095 -0.0027,0.003 -0.0048,0.006 -0.0074,0.009 l 0.002,0.0031 c -0.08457,0.101546 -0.116402,0.231488 -0.113616,0.363431 0.0029,0.13651 0.03818,0.27791 0.0901,0.417188 0.103835,0.278558 0.270325,0.539935 0.457127,0.680802 z" fill="currentColor" fill-opacity="1" stroke="none" marker="none" visibility="visible" display="inline" overflow="visible"></path><path style="text-indent:0;text-transform:none;direction:ltr;block-progression:tb;baseline-shift:baseline;color:#000000;enable-background:accumulate;" d="m 60.223095,40.952357 c 0.01168,-0.03672 0.05659,-0.120296 0.111004,-0.209501 0.05442,-0.0892 0.118527,-0.187727 0.162774,-0.285785 0.04425,-0.09806 0.08576,-0.2068 0.02697,-0.321623 -0.0294,-0.05741 -0.08751,-0.09947 -0.149149,-0.118758 -0.06164,-0.01928 -0.128322,-0.0214 -0.209724,-0.01515 l -0.002,-0.0031 -0.0031,0.002 c -0.291886,0.02946 -0.543496,0.136231 -0.740465,0.04678 l -0.09889,0.214886 c 0.314773,0.142956 0.626078,0.002 0.860231,-0.02253 0.0016,-1.19e-4 0.0016,-0.0019 0.0031,-0.002 0.06002,-0.0042 0.100912,0.0025 0.118112,0.0079 0.01764,0.0055 0.01041,0.0035 0.0082,-8.27e-4 -0.0045,-0.0087 7.31e-4,0.03712 -0.03325,0.112415 -0.03398,0.0753 -0.08866,0.170296 -0.143826,0.260736 -0.05517,0.09044 -0.110683,0.173635 -0.138755,0.261877 l 0.228761,0.0727 z" fill="currentColor" fill-opacity="1" stroke="none" marker="none" visibility="visible" display="inline" overflow="visible"></path><path style="text-indent:0;text-transform:none;direction:ltr;block-progression:tb;baseline-shift:baseline;color:#000000;enable-background:accumulate;" d="m 61.865995,40.434308 c 0.150221,-0.06528 0.303762,-0.169279 0.431195,-0.294748 l 0.002,0.0031 c 0.0053,-0.0036 0.0084,-0.0092 0.01356,-0.01294 8.83e-4,-8.93e-4 0.0022,-0.0011 0.0031,-0.002 0.2318,-0.170349 0.323641,-0.46092 0.2498,-0.732448 -0.07579,-0.278705 -0.319401,-0.536508 -0.71489,-0.648131 l -0.03043,-0.0068 -0.03074,0.0064 c -0.272486,0.07008 -0.507058,0.202101 -0.67468,0.370588 -0.167623,0.168487 -0.272146,0.37687 -0.26189,0.596528 l 0.0017,0.01636 0.0028,0.01128 c 0.0688,0.239759 0.136203,0.38627 0.23004,0.493917 0.09384,0.107648 0.201475,0.165672 0.331837,0.242387 l 0.0051,0.0011 c 0.07103,0.03816 0.142616,0.03543 0.215623,0.02446 0.07301,-0.01097 0.147708,-0.0351 0.225989,-0.06911 z m -0.09479,-0.218436 c -0.06369,0.02768 -0.122072,0.04651 -0.166464,0.05318 -0.04115,0.0062 -0.06311,0.0013 -0.06428,0.0015 -9.3e-5,2e-5 -0.0053,-0.0013 -0.0051,-0.0011 -0.130946,-0.07698 -0.209612,-0.123025 -0.268804,-0.190928 -0.05749,-0.06595 -0.111451,-0.17639 -0.172502,-0.38242 -0.0028,-0.133877 0.05875,-0.280545 0.188156,-0.410622 0.125316,-0.125963 0.311731,-0.229072 0.529019,-0.291421 0.307632,0.09656 0.474365,0.279986 0.524447,0.464151 0.05188,0.190768 -0.0088,0.37584 -0.17057,0.486503 l -0.0093,0.0059 -0.01046,0.01097 c -0.103605,0.105811 -0.246766,0.198926 -0.374151,0.254282 z" fill="currentColor" fill-opacity="1" stroke="none" marker="none" visibility="visible" display="inline" overflow="visible"></path><path style="text-indent:0;text-transform:none;direction:ltr;block-progression:tb;baseline-shift:baseline;color:#000000;enable-background:accumulate;" d="m 59.229927,43.713001 c 0.375914,-0.237995 0.89507,-0.57973 1.26749,-0.815513 l -0.127811,-0.201879 c -0.375903,0.237988 -0.895058,0.579723 -1.26749,0.815513 l 0.127811,0.201879 z" fill="currentColor" fill-opacity="1" stroke="none" marker="none" visibility="visible" display="inline" overflow="visible"></path><path style="text-indent:0;text-transform:none;direction:ltr;block-progression:tb;baseline-shift:baseline;color:#000000;enable-background:accumulate;" d="M 59.873376,43.801611 59.7848,43.579242 c -0.204834,0.08325 -0.263202,0.09307 -0.303836,0.08359 -0.02741,-0.0064 -0.124091,-0.05958 -0.208674,-0.102825 0.0072,-0.02087 0.01598,-0.03439 0.02382,-0.05859 0.02344,-0.07232 0.04953,-0.155343 0.07499,-0.238906 0.02545,-0.08356 0.05099,-0.166433 0.07384,-0.233833 0.02286,-0.0674 0.0463,-0.124492 0.05105,-0.132391 l -0.204117,-0.123114 c -0.03015,0.05004 -0.04998,0.105233 -0.07456,0.177727 -0.02459,0.07249 -0.0494,0.15491 -0.07498,0.238906 -0.02558,0.08399 -0.05274,0.170295 -0.07498,0.238905 -0.02224,0.06861 -0.04563,0.124919 -0.05219,0.137463 l -0.05778,0.114895 0.11914,0.05074 c 0.169036,0.07483 0.23271,0.136513 0.352035,0.164338 0.119326,0.02782 0.231939,-0.008 0.444829,-0.09454 z" fill="currentColor" fill-opacity="1" stroke="none" marker="none" visibility="visible" display="inline" overflow="visible"></path><path style="text-indent:0;text-transform:none;direction:ltr;block-progression:tb;baseline-shift:baseline;color:#000000;enable-background:accumulate;" d="m 58.082683,45.440002 c 0.179003,-0.10555 0.309679,-0.258765 0.435663,-0.397643 0.125984,-0.138878 0.248711,-0.264104 0.396629,-0.342476 l 0.01242,-0.0079 0.01356,-0.01294 c 0.145024,-0.137551 0.246373,-0.303156 0.329259,-0.469502 l 0.03428,-0.06956 -0.04864,-0.05622 c -0.24079,-0.302701 -0.365385,-0.741398 -0.702092,-1.060852 l -0.06976,-0.06895 -0.08189,0.0562 c -0.28698,0.196712 -0.605268,0.398585 -0.881138,0.649223 l -0.0011,0.0051 c -0.04957,0.04842 -0.190995,0.112106 -0.303544,0.200879 -0.05627,0.04439 -0.117973,0.103245 -0.127047,0.197904 -0.0081,0.08428 0.03987,0.161885 0.105758,0.228894 l -0.0031,0.002 c 0.238083,0.366131 0.460529,0.754598 0.735519,1.113651 l 0.06634,0.08417 0.08893,-0.05195 z M 58.045566,45.1546 c -0.228292,-0.314439 -0.433069,-0.651916 -0.651794,-0.988279 l -0.0098,-0.01553 -0.01097,-0.01046 c -0.0516,-0.04627 -0.04606,-0.05953 -0.04668,-0.05311 -6.16e-4,0.0064 0.0054,-0.0068 0.03955,-0.03374 0.06759,-0.05331 0.207506,-0.11334 0.315141,-0.216922 l 0.002,0.0031 c 0.227262,-0.206476 0.49914,-0.386574 0.760837,-0.564358 0.213452,0.241264 0.356386,0.569272 0.575934,0.875329 -0.06988,0.131685 -0.143569,0.259049 -0.244978,0.355232 -6.5e-5,3.7e-5 0.002,0.0031 0.002,0.0031 -0.177644,0.101729 -0.312233,0.241043 -0.433071,0.374249 -0.09909,0.109228 -0.198383,0.193642 -0.298069,0.271375 z" fill="currentColor" fill-opacity="1" stroke="none" marker="none" visibility="visible" display="inline" overflow="visible"></path><path style="text-indent:0;text-transform:none;direction:ltr;block-progression:tb;baseline-shift:baseline;color:#000000;enable-background:accumulate;" d="m 57.569817,43.750314 0.07467,-0.225655 c -0.04621,-0.01492 -0.130918,-0.07983 -0.207938,-0.177255 -0.07702,-0.09742 -0.149958,-0.224635 -0.197662,-0.353439 -0.0477,-0.128804 -0.06899,-0.260212 -0.05781,-0.359317 0.01118,-0.09911 0.04453,-0.160375 0.123115,-0.204116 l 0.0093,-0.0059 0.01046,-0.01097 c 0.450695,-0.40288 1.002123,-0.686772 1.532423,-1.022402 l -0.127811,-0.201879 c -0.511629,0.323813 -1.066735,0.613347 -1.54288,1.033373 -0.0065,0.0057 -0.01528,0.008 -0.02174,0.01376 l 0.002,0.0031 c -0.133718,0.08538 -0.207516,0.223056 -0.223862,0.367968 -0.0173,0.153323 0.01364,0.315139 0.07052,0.468737 0.05689,0.153598 0.141521,0.301309 0.235849,0.420628 0.09433,0.119318 0.195781,0.212816 0.32138,0.253357 z" fill="currentColor" fill-opacity="1" stroke="none" marker="none" visibility="visible" display="inline" overflow="visible"></path><path style="text-indent:0;text-transform:none;direction:ltr;block-progression:tb;baseline-shift:baseline;color:#000000;enable-background:accumulate;" d="m 58.529239,42.29015 c 0.159993,-0.321747 0.328003,-0.668465 0.411434,-1.01316 l 0.03077,-0.136948 -0.136434,-0.0093 c -0.459956,-0.03647 -0.900886,0.08075 -1.29552,0.01532 l -0.03917,0.233632 c 0.404454,0.06706 0.792856,-0.0035 1.154527,-0.0044 -0.08342,0.264787 -0.204771,0.53747 -0.338215,0.805827 l 0.212607,0.109037 z" fill="currentColor" fill-opacity="1" stroke="none" marker="none" visibility="visible" display="inline" overflow="visible"></path><path style="text-indent:0;text-transform:none;direction:ltr;block-progression:tb;baseline-shift:baseline;color:#000000;enable-background:accumulate;" d="m 65.218838,33.806384 c -0.123718,-0.102987 -0.297448,-0.07313 -0.400429,0.05058 l -0.176189,0.211654 -0.483781,-0.402718 c -0.342019,-0.28471 -0.828039,-0.2843 -1.161079,-0.01953 l -1.012917,-0.843191 c -0.188941,-0.157282 -0.492473,-0.115561 -0.649756,0.07338 l -8.922724,10.71878 c -0.157284,0.188943 -0.143262,0.495008 0.04568,0.65229 l 7.967274,6.632264 c 0.188941,0.157282 0.492473,0.115561 0.649756,-0.07338 l 8.922724,-10.71878 c 0.157283,-0.188943 0.143262,-0.495008 -0.04568,-0.65229 L 68.9388,38.592251 c 0.199971,-0.375536 0.112226,-0.85357 -0.229793,-1.13828 l -0.468663,-0.390133 0.176189,-0.211654 c 0.102981,-0.12371 0.08572,-0.31256 -0.038,-0.415547 l -3.159697,-2.630253 z m -3.50105,-0.406161 0.876854,0.729927 -0.515983,0.619845 0.695436,0.578907 4.53545,3.775483 0.725672,0.604077 0.515983,-0.619845 0.861735,0.717342 -8.721365,10.47689 -7.695146,-6.405736 8.721364,-10.47689 z" fill="currentColor" fill-opacity="1" fill-rule="nonzero" stroke="none" marker="none" visibility="visible" display="inline" overflow="visible"></path></svg></g></svg>