<?xml version="1.0" standalone="no"?>
<!DOCTYPE svg PUBLIC "-//W3C//DTD SVG 20010904//EN"
 "http://www.w3.org/TR/2001/REC-SVG-20010904/DTD/svg10.dtd">
<svg version="1.0" xmlns="http://www.w3.org/2000/svg"
 width="700.000000pt" height="700.000000pt" viewBox="0 0 700.000000 700.000000"
 preserveAspectRatio="xMidYMid meet">
<metadata>
Created by potrace 1.14, written by Peter Selinger 2001-2017
</metadata>
<g transform="translate(0.000000,700.000000) scale(0.100000,-0.100000)"
fill="#000000" stroke="none">
<path d="M3289 6459 c-69 -4 -197 -19 -284 -34 -1090 -183 -1996 -970 -2333
-2025 -133 -417 -172 -907 -107 -1340 65 -436 236 -870 483 -1230 205 -300
483 -578 782 -782 623 -427 1404 -600 2149 -478 500 82 979 296 1381 616 110
88 367 345 454 454 391 493 607 1052 648 1683 47 722 -182 1448 -642 2027
-103 130 -334 362 -460 462 -493 391 -1058 610 -1675 648 -167 11 -214 10
-396 -1z m406 -129 c773 -57 1467 -406 1966 -990 704 -823 874 -1991 435
-2991 -211 -479 -583 -920 -1022 -1212 -911 -604 -2097 -634 -3029 -74 -607
364 -1056 938 -1260 1613 -43 142 -90 369 -106 519 -16 142 -16 469 0 610 141
1244 1058 2241 2277 2479 250 49 493 64 739 46z"/>
<path d="M3747 5998 c-19 -82 -49 -320 -41 -327 5 -5 28 -11 52 -15 49 -7 46
-12 62 93 l12 74 31 -49 c22 -35 31 -62 31 -94 l1 -44 45 -8 c24 -4 47 -4 51
0 12 12 60 335 52 343 -4 4 -28 9 -53 11 l-45 3 -9 -40 c-4 -22 -10 -47 -13
-55 -2 -9 -19 9 -42 47 -44 69 -43 68 -92 77 -33 6 -37 4 -42 -16z"/>
<path d="M3103 5991 c-50 -9 -94 -19 -98 -22 -3 -4 -3 -24 1 -44 6 -35 8 -37
39 -32 l33 5 12 -79 c6 -43 8 -84 5 -89 -3 -6 -18 -10 -32 -10 -24 0 -25 -2
-19 -42 4 -23 8 -43 9 -45 2 -1 54 6 117 15 l115 17 -3 30 c-5 51 -10 58 -41
53 -33 -5 -35 -2 -46 92 -4 30 -7 59 -8 65 -1 5 12 12 28 15 27 5 30 8 27 40
-6 58 2 56 -139 31z"/>
<path d="M4465 5650 c-41 -82 -75 -153 -75 -158 0 -9 205 -112 223 -112 7 0
21 15 30 34 18 40 18 41 -60 80 -55 27 -59 32 -44 55 7 11 17 8 54 -13 l45
-27 21 27 c29 36 26 52 -10 72 -57 31 -65 40 -53 52 9 9 27 4 72 -19 34 -17
64 -31 67 -31 6 0 45 62 45 72 0 9 -214 118 -230 118 -5 0 -44 -67 -85 -150z"/>
<path d="M2367 5759 c-32 -16 -61 -37 -64 -45 -3 -9 -1 -56 5 -104 8 -66 19
-105 46 -159 20 -39 41 -71 47 -71 15 0 89 39 89 48 -1 4 -7 18 -15 32 -20 35
-19 37 15 55 40 21 46 19 60 -15 15 -35 27 -37 80 -10 l40 20 -39 78 c-42 83
-153 202 -188 202 -10 -1 -44 -14 -76 -31z m113 -139 c0 -11 -51 -31 -61 -25
-10 7 -12 68 -2 78 7 7 63 -41 63 -53z"/>
<path d="M5067 5262 c-64 -64 -117 -122 -117 -129 0 -6 16 -25 36 -43 l37 -32
39 38 c41 41 56 41 85 -3 13 -20 12 -24 -12 -45 -49 -42 -51 -56 -14 -94 18
-19 37 -34 41 -34 14 0 89 73 103 100 8 15 12 36 9 48 -4 14 0 22 15 27 32 10
71 63 71 97 0 24 -15 46 -77 109 -42 44 -81 79 -87 79 -6 0 -64 -53 -129 -118z
m163 -37 c26 -32 -18 -71 -48 -42 -14 15 -14 18 3 37 22 24 29 25 45 5z"/>
<path d="M1687 5260 l-82 -79 127 -128 128 -127 35 34 c19 19 35 38 35 44 0 6
-16 26 -35 46 l-35 36 30 29 30 29 40 -39 40 -39 35 34 c19 19 35 39 35 46 0
6 -25 35 -56 64 -48 45 -59 51 -85 46 -22 -4 -29 -2 -29 10 0 29 -59 74 -96
74 -30 0 -47 -12 -117 -80z m121 -42 c15 -15 15 -41 0 -56 -9 -9 -17 -7 -35
10 -21 20 -22 23 -6 40 19 21 25 22 41 6z"/>
<path d="M3275 5204 c-185 -27 -368 -84 -540 -170 -471 -234 -799 -657 -917
-1185 -21 -93 -23 -129 -23 -349 0 -201 3 -260 18 -330 135 -617 560 -1101
1139 -1295 211 -70 274 -79 548 -79 274 0 339 10 549 80 518 173 930 597 1090
1121 59 195 66 246 66 508 -1 210 -3 252 -23 338 -46 205 -123 399 -225 562
-245 394 -645 675 -1104 776 -81 18 -138 22 -323 24 -124 2 -238 1 -255 -1z
m-45 -130 c0 -3 -32 -50 -70 -105 -54 -76 -85 -109 -133 -141 -84 -56 -177
-133 -152 -125 11 4 68 23 127 44 l107 36 317 -153 317 -153 257 128 258 129
48 -18 c46 -17 109 -50 163 -85 23 -15 24 -14 13 6 -16 29 -107 109 -158 139
-35 21 -47 36 -64 81 -11 31 -19 57 -17 59 6 7 158 -88 227 -141 89 -69 199
-174 263 -253 59 -72 147 -201 147 -214 0 -18 -28 -6 -48 22 -27 35 -184 171
-191 165 -2 -3 7 -18 21 -33 30 -32 98 -132 122 -180 14 -27 18 -88 26 -370
l9 -337 101 -292 100 -293 -34 -85 c-85 -210 -284 -503 -355 -520 -14 -3 -96
-28 -181 -55 l-155 -50 -178 -159 c-137 -124 -186 -163 -218 -171 -219 -59
-519 -65 -739 -14 l-65 15 -95 171 c-52 94 -102 179 -110 189 -8 10 -141 77
-295 149 -154 73 -286 136 -293 142 -16 14 -67 121 -103 217 -25 67 -28 72
-28 41 -1 -54 18 -158 41 -233 33 -100 13 -104 -49 -9 -113 173 -195 376 -234
575 -21 107 -37 297 -25 297 4 0 40 -18 82 -41 50 -28 75 -48 78 -62 12 -61
57 -237 69 -272 13 -37 14 -31 9 86 -8 212 -18 191 178 358 l168 143 -5 329
-6 329 38 56 c21 30 70 85 109 121 l71 66 -53 -29 c-30 -16 -91 -59 -137 -96
l-84 -68 -121 0 -121 0 48 63 c218 284 533 491 888 582 97 25 115 28 115 19z"/>
<path d="M3731 4290 c-15 -127 -42 -271 -71 -378 l-21 -79 -277 -161 -277
-161 -73 14 c-98 19 -222 57 -324 100 l-83 35 81 -78 c81 -78 212 -172 295
-213 l47 -22 97 -308 97 -308 -32 -63 c-45 -89 -120 -187 -198 -260 l-67 -61
80 42 c105 56 184 113 278 201 l76 71 310 -20 310 -19 94 -99 c51 -54 111
-117 132 -141 21 -23 39 -41 41 -39 2 2 -30 81 -72 176 l-76 173 27 66 c15 37
67 167 117 288 l89 222 42 18 c57 26 291 183 347 233 l45 40 -89 -34 c-94 -37
-258 -80 -343 -90 l-52 -7 -234 186 -234 186 -6 152 c-5 136 -31 328 -55 413
-7 24 -11 11 -21 -75z"/>
<path d="M1245 4640 l-65 -130 32 -20 c44 -27 53 -25 68 10 7 17 16 33 21 36
4 2 58 -20 118 -51 61 -30 113 -55 116 -55 7 0 45 77 45 92 0 8 -49 38 -110
68 -60 30 -110 57 -110 60 1 3 7 16 15 30 22 39 18 55 -20 73 -20 9 -38 17
-40 17 -3 0 -34 -59 -70 -130z"/>
<path d="M5595 4702 c-43 -23 -50 -32 -53 -60 -2 -19 4 -54 12 -79 15 -43 14
-63 -3 -63 -4 0 -17 21 -30 48 -12 26 -29 57 -37 70 l-15 22 -39 -20 c-45 -23
-46 -18 13 -130 63 -118 92 -131 182 -82 45 24 50 31 53 66 2 21 -4 56 -13 78
-15 37 -13 58 4 58 4 0 18 -23 31 -50 32 -68 42 -75 79 -56 16 9 33 20 36 26
8 13 -69 159 -97 183 -28 24 -65 21 -123 -11z"/>
<path d="M1441 2586 c-57 -33 -88 -60 -133 -116 l-58 -73 36 -66 c20 -36 39
-69 43 -73 3 -4 49 -1 101 6 77 11 108 21 164 52 38 22 71 44 73 51 4 10 -42
93 -51 93 -2 0 -35 -18 -73 -39 -65 -37 -163 -64 -163 -44 0 17 75 81 137 118
l63 36 -25 49 c-14 28 -29 50 -33 49 -4 0 -40 -19 -81 -43z"/>
<path d="M5431 2586 c-12 -18 -21 -40 -21 -47 0 -8 21 -26 47 -41 45 -25 46
-27 23 -32 -129 -29 -134 -31 -153 -63 -10 -18 -16 -37 -13 -42 6 -9 289 -171
300 -171 7 0 46 75 46 89 0 5 -32 27 -71 49 -78 43 -77 45 13 57 35 5 52 3 70
-9 12 -9 27 -16 33 -16 11 0 62 87 55 93 -14 12 -291 167 -299 167 -5 0 -19
-15 -30 -34z"/>
<path d="M1695 2089 c-167 -154 -151 -133 -126 -166 13 -15 56 -63 97 -106
l75 -77 64 57 c36 32 65 65 65 74 0 17 -50 69 -66 69 -6 0 -23 -13 -39 -30
-27 -28 -30 -29 -47 -13 -10 9 -18 22 -18 29 0 7 42 51 92 98 l93 86 -40 40
-40 40 -110 -101z"/>
<path d="M5080 2088 l-84 -91 124 -118 c69 -65 130 -118 135 -119 12 0 175
174 175 188 0 13 -45 52 -61 52 -8 0 -34 -23 -58 -51 -40 -46 -45 -49 -59 -35
-15 14 -13 19 16 49 39 41 40 57 3 84 l-28 22 -38 -39 c-30 -31 -42 -37 -52
-28 -11 9 -3 21 37 64 27 29 50 57 50 63 0 11 -53 51 -67 51 -4 0 -46 -41 -93
-92z"/>
<path d="M4694 1759 c-129 -83 -126 -61 -22 -218 50 -75 94 -140 99 -145 10
-11 89 39 89 57 0 7 -12 29 -26 50 -25 37 -25 39 -7 52 36 28 56 29 73 4 43
-65 42 -65 88 -34 23 15 42 32 42 37 0 5 -18 36 -40 69 -39 56 -51 64 -92 61
-13 -1 -18 6 -18 24 0 31 -59 94 -88 94 -11 0 -55 -23 -98 -51z m95 -88 c8
-14 6 -23 -9 -36 -19 -17 -20 -17 -39 6 -18 22 -19 25 -4 37 24 17 41 15 52
-7z"/>
<path d="M2155 1769 c-90 -66 -107 -83 -150 -147 l-45 -67 27 -23 c53 -42 70
-40 102 17 7 11 15 9 44 -11 l36 -24 -19 -30 c-11 -16 -20 -33 -20 -39 0 -12
65 -55 82 -55 26 1 97 126 118 208 11 44 20 90 20 101 0 23 -107 101 -137 100
-10 0 -36 -14 -58 -30z m74 -132 c-11 -42 -18 -44 -49 -19 l-22 18 32 28 c40
33 53 23 39 -27z"/>
<path d="M4258 1537 c-58 -23 -109 -45 -113 -48 -5 -5 109 -316 120 -327 4 -5
226 77 238 88 11 10 -19 80 -34 80 -7 0 -39 -10 -71 -22 -49 -18 -61 -19 -68
-8 -12 20 -4 28 41 42 48 14 56 28 39 68 -14 34 -23 36 -75 14 -25 -10 -41
-12 -47 -6 -16 16 -2 28 61 51 33 12 62 25 65 29 7 12 -25 82 -38 81 -6 -1
-59 -20 -118 -42z"/>
<path d="M2597 1483 c-40 -47 -66 -90 -87 -145 -17 -42 -30 -80 -30 -83 0 -10
84 -44 93 -38 5 3 15 21 23 39 13 31 16 33 42 23 15 -5 32 -12 39 -14 10 -3 9
-14 -2 -45 -14 -41 -14 -41 13 -51 74 -28 77 -27 106 48 30 75 44 196 29 252
-8 30 -16 37 -68 57 -33 13 -69 23 -80 23 -13 1 -41 -23 -78 -66z m123 -88 c0
-25 -2 -45 -4 -45 -9 0 -66 23 -66 26 0 3 10 18 22 34 32 44 48 39 48 -15z"/>
<path d="M3095 1408 c-6 -21 -37 -329 -33 -333 2 -2 26 -5 53 -7 l50 -3 8 60
c17 117 14 115 53 56 30 -44 35 -59 29 -87 -5 -30 -3 -35 20 -44 15 -6 39 -10
55 -10 34 0 32 -8 55 204 17 157 18 156 -52 156 l-42 0 -6 -47 c-4 -27 -7 -52
-9 -56 -1 -5 -23 21 -49 57 -44 63 -49 66 -87 66 -24 0 -42 -5 -45 -12z"/>
<path d="M3710 1407 c-41 -5 -77 -13 -81 -18 -5 -9 35 -337 43 -344 3 -3 54 2
114 10 169 24 184 42 164 205 -11 92 -16 108 -41 132 -31 31 -60 34 -199 15z
m125 -144 c4 -32 9 -66 11 -75 4 -13 -3 -21 -21 -28 -55 -21 -57 -17 -71 103
l-6 57 40 0 41 0 6 -57z"/>
</g>
</svg>
