<?xml version="1.0" standalone="no"?>
<!DOCTYPE svg PUBLIC "-//W3C//DTD SVG 20010904//EN"
 "http://www.w3.org/TR/2001/REC-SVG-20010904/DTD/svg10.dtd">
<svg version="1.0" xmlns="http://www.w3.org/2000/svg"
 width="936.000000pt" height="936.000000pt" viewBox="0 0 936.000000 936.000000"
 preserveAspectRatio="xMidYMid meet">
<metadata>
Created by potrace 1.14, written by Peter Selinger 2001-2017
</metadata>
<g transform="translate(0.000000,936.000000) scale(0.100000,-0.100000)"
fill="#000000" stroke="none">
<path d="M4540 9297 c-58 -35 -213 -127 -345 -203 -132 -76 -249 -144 -260
-151 -11 -6 -33 -19 -50 -27 -42 -22 -93 -52 -107 -64 -7 -5 -35 -22 -63 -37
-27 -14 -66 -36 -85 -47 -19 -11 -55 -32 -80 -46 -25 -14 -74 -42 -109 -64
-34 -21 -67 -38 -71 -38 -4 0 -13 -7 -20 -15 -7 -8 -16 -13 -20 -10 -5 3 -10
2 -12 -3 -1 -4 -37 -27 -78 -51 -320 -185 -510 -295 -805 -466 -187 -109 -360
-209 -385 -222 -25 -14 -65 -38 -90 -53 -25 -15 -178 -104 -340 -198 -162 -93
-309 -178 -327 -188 -17 -11 -62 -37 -100 -58 -37 -21 -132 -77 -210 -122 -78
-46 -147 -84 -152 -84 -6 0 -11 -4 -11 -10 0 -5 -4 -10 -9 -10 -5 0 -48 -23
-95 -51 l-86 -50 2 -2351 c3 -2077 5 -2352 18 -2359 8 -5 89 -52 179 -104 90
-52 167 -95 172 -95 5 0 9 -4 9 -10 0 -5 5 -10 10 -10 6 0 88 -45 181 -100 94
-55 174 -100 177 -100 3 0 13 -6 21 -14 9 -7 43 -28 76 -46 33 -17 97 -54 141
-81 45 -27 87 -49 93 -49 6 0 11 -4 11 -10 0 -5 6 -10 14 -10 7 0 19 -7 26
-15 7 -8 16 -13 20 -10 5 3 11 1 15 -5 3 -6 40 -29 81 -53 42 -23 83 -47 92
-52 9 -6 51 -29 92 -53 41 -23 82 -47 90 -52 52 -33 172 -100 180 -100 6 0 10
-4 10 -10 0 -5 4 -10 9 -10 7 0 132 -69 181 -101 25 -16 242 -140 300 -172 30
-17 66 -38 80 -47 14 -9 115 -68 225 -131 110 -63 202 -117 203 -121 2 -5 8
-8 13 -8 5 0 39 -18 75 -40 36 -22 68 -40 70 -40 2 0 33 -18 69 -40 36 -22 68
-40 71 -40 3 0 26 -13 51 -30 24 -16 47 -30 50 -30 3 0 50 -27 105 -60 54 -33
100 -60 102 -60 4 0 379 -218 391 -227 12 -10 91 -53 122 -68 13 -5 23 -13 23
-17 0 -5 4 -8 10 -8 5 0 44 -20 86 -45 81 -48 139 -59 168 -30 8 8 17 15 19
15 3 0 91 50 196 110 105 61 195 110 200 110 5 0 11 4 13 8 2 5 50 35 108 67
58 33 107 62 110 65 3 4 20 13 38 21 17 8 32 17 32 21 0 5 4 8 10 8 5 0 38 17
72 38 35 21 70 41 78 45 8 4 31 17 50 28 134 80 220 129 229 129 5 0 11 3 13
8 4 8 48 35 98 60 19 9 37 19 40 22 4 5 392 230 455 264 11 6 22 14 25 17 3 3
19 12 35 21 17 8 57 31 90 50 202 117 239 138 246 138 5 0 9 5 9 10 0 6 4 10
9 10 5 0 114 61 242 136 129 75 293 170 364 211 72 41 137 78 145 83 116 70
150 89 150 82 0 -4 4 -2 8 3 9 14 148 95 161 95 6 0 11 5 11 10 0 6 6 10 14
10 8 0 21 6 28 13 17 16 297 177 309 177 5 0 9 5 9 10 0 6 4 10 9 10 5 0 89
47 187 104 l179 104 0 2352 0 2353 -32 17 c-18 10 -38 22 -45 27 -7 6 -38 24
-68 40 -30 17 -84 48 -120 69 -112 66 -144 85 -162 91 -10 3 -18 9 -18 14 0 5
-4 9 -9 9 -9 0 -324 180 -346 197 -6 4 -28 18 -50 29 -93 50 -310 178 -313
186 -2 4 -12 8 -23 8 -10 0 -19 4 -19 9 0 5 -12 14 -27 21 -33 13 -88 43 -105
57 -7 6 -38 24 -68 41 -30 17 -176 100 -324 186 -148 86 -273 156 -277 156 -4
0 -9 3 -11 8 -2 4 -21 17 -43 29 -22 12 -115 66 -208 120 -92 54 -180 104
-195 112 -15 8 -28 18 -30 23 -2 4 -8 8 -14 8 -5 0 -64 32 -131 71 -67 40
-142 83 -166 97 -98 55 -858 495 -881 510 -14 9 -27 17 -30 17 -3 0 -16 8 -30
17 -14 9 -37 22 -52 29 -16 7 -28 16 -28 21 0 4 -5 8 -11 8 -7 0 -46 21 -88
46 -116 71 -140 70 -271 -9z m251 -257 c55 -33 103 -60 105 -60 2 0 28 -16 58
-35 30 -19 57 -35 59 -35 2 0 66 -36 141 -80 75 -44 141 -80 146 -80 6 0 10
-3 10 -7 0 -5 10 -13 23 -19 12 -6 81 -45 154 -87 72 -42 147 -85 167 -96 19
-11 53 -31 75 -45 22 -15 45 -26 51 -26 5 0 10 -5 10 -11 0 -5 4 -8 9 -4 5 3
12 1 15 -4 6 -8 115 -74 126 -76 3 0 16 -8 30 -16 42 -28 321 -190 405 -237
44 -24 85 -48 90 -52 6 -4 30 -19 55 -32 25 -14 128 -74 230 -133 102 -60 199
-116 215 -125 17 -10 57 -33 90 -52 33 -19 164 -95 290 -168 277 -160 275
-158 350 -203 121 -71 170 -98 188 -104 9 -3 17 -9 17 -14 0 -5 5 -9 11 -9 6
0 30 -13 54 -30 24 -16 46 -30 49 -30 3 0 85 -46 181 -102 97 -57 195 -114
218 -127 23 -13 52 -30 65 -37 l22 -14 -2 -2211 -3 -2211 -165 -97 c-91 -54
-186 -109 -212 -124 -41 -23 -146 -84 -396 -229 -46 -26 -86 -48 -89 -48 -4 0
-14 -6 -22 -14 -9 -7 -36 -25 -61 -38 -25 -14 -79 -45 -120 -70 -41 -24 -82
-47 -90 -51 -8 -4 -28 -15 -45 -26 -16 -10 -46 -27 -65 -38 -42 -25 -221 -128
-271 -157 -20 -12 -58 -33 -84 -48 -26 -16 -51 -28 -56 -28 -5 0 -9 -4 -9 -9
0 -5 -9 -13 -20 -16 -11 -4 -48 -23 -83 -44 -34 -21 -82 -49 -107 -63 -25 -14
-101 -58 -170 -98 -69 -41 -168 -98 -220 -128 -52 -30 -108 -63 -125 -73 -16
-10 -37 -22 -45 -26 -8 -4 -63 -35 -122 -70 -59 -35 -111 -63 -117 -63 -5 0
-11 -4 -13 -8 -1 -4 -34 -25 -73 -47 -38 -21 -73 -42 -76 -47 -3 -6 -10 -10
-15 -10 -5 0 -49 -24 -99 -53 -49 -29 -109 -63 -132 -76 -23 -13 -83 -48 -135
-78 -51 -30 -106 -62 -123 -71 -16 -9 -64 -37 -105 -62 -41 -24 -82 -47 -90
-51 -8 -4 -22 -11 -30 -17 -37 -24 -152 -91 -189 -110 l-41 -20 -55 35 c-31
19 -58 35 -60 35 -3 0 -35 18 -71 40 -36 22 -67 40 -69 40 -2 0 -49 27 -104
60 -56 33 -106 60 -111 60 -6 0 -10 4 -10 8 0 4 -12 13 -27 20 -41 18 -141 76
-155 90 -7 7 -15 12 -20 12 -4 0 -42 21 -85 46 -43 26 -98 58 -123 72 -25 14
-121 70 -214 124 -93 54 -173 98 -177 98 -5 0 -9 5 -9 11 0 5 -4 7 -10 4 -5
-3 -10 -1 -10 4 0 6 -4 11 -9 11 -5 0 -71 37 -147 81 -161 94 -498 290 -564
327 -52 29 -168 98 -190 112 -8 6 -22 13 -30 17 -8 3 -49 26 -90 50 -41 24
-84 49 -95 55 -87 49 -231 134 -235 138 -3 3 -30 18 -60 34 -30 16 -63 36 -72
44 -10 8 -18 11 -18 7 0 -4 -8 -1 -17 7 -17 15 -154 95 -273 161 -30 17 -56
34 -58 39 -2 4 -8 8 -13 8 -5 0 -64 32 -130 70 -66 38 -124 70 -129 70 -4 0
-10 4 -12 8 -1 5 -39 28 -83 52 -44 24 -82 46 -85 49 -3 4 -16 12 -30 19 -14
7 -40 21 -57 32 -18 11 -48 28 -65 38 l-33 19 -3 2210 -2 2211 47 30 c27 16
77 46 113 66 36 20 72 41 80 46 62 39 382 220 389 220 5 0 11 4 13 8 2 4 95
61 208 126 268 154 583 337 618 357 82 49 214 125 260 150 28 16 70 40 92 54
22 14 43 25 47 25 3 0 14 6 22 14 9 7 43 28 76 46 33 17 65 35 70 40 6 4 30
19 55 32 25 14 86 49 135 78 50 29 108 62 131 75 81 45 89 50 94 55 4 5 141
84 360 208 25 14 72 42 105 62 33 20 67 39 75 43 8 4 22 11 30 17 8 5 51 30
95 55 44 26 87 50 95 55 8 5 44 26 80 47 36 21 72 42 81 48 9 5 43 25 75 42
32 18 82 46 109 63 28 17 59 35 70 40 11 6 38 21 60 35 22 14 55 32 73 41 18
9 35 20 38 25 9 15 21 10 125 -51z"/>
<path d="M3450 7562 l-25 -3 2 -122 c1 -67 2 -129 2 -137 1 -13 30 -15 211
-15 181 0 210 -2 211 -15 0 -8 1 -304 1 -657 1 -581 3 -643 17 -644 87 -4 269
-3 281 2 13 6 15 89 15 658 0 430 3 652 10 654 5 2 101 3 213 2 l202 -1 1 31
c6 201 4 245 -11 246 -55 2 -1110 3 -1130 1z"/>
<path d="M4677 7562 c-10 -2 -17 -7 -17 -11 0 -4 59 -185 131 -402 71 -217
132 -405 135 -418 3 -14 8 -29 12 -35 4 -6 7 -13 7 -16 2 -12 88 -277 96 -295
5 -11 32 -92 60 -180 53 -165 82 -219 127 -236 73 -28 145 -11 186 45 19 25
60 128 72 181 2 9 75 227 253 755 34 102 64 192 66 200 2 8 33 102 69 209 37
107 66 197 66 200 0 6 -320 6 -324 -1 -2 -3 -64 -202 -71 -228 -2 -8 -16 -53
-30 -100 -47 -152 -57 -185 -60 -195 -1 -5 -5 -17 -8 -25 -10 -27 -37 -116
-41 -136 -2 -10 -10 -32 -16 -49 -6 -16 -13 -37 -15 -46 -2 -8 -20 -69 -40
-134 l-37 -119 -13 40 c-7 21 -27 86 -45 144 -18 58 -43 139 -56 179 -13 41
-27 90 -30 108 -3 18 -11 33 -17 33 -6 0 -8 2 -5 6 3 3 -8 49 -24 102 -16 53
-31 102 -32 107 -2 6 -6 17 -9 25 -5 13 -64 208 -82 268 -4 15 -14 22 -33 23
-194 3 -261 3 -275 1z"/>
<path d="M4607 5054 c-1 -2 -15 -5 -31 -8 -40 -7 -93 -51 -115 -94 -25 -48
-33 -119 -15 -126 7 -3 16 -1 19 3 9 15 136 35 215 34 62 0 170 -12 182 -19 5
-3 20 -7 34 -10 25 -4 25 -3 23 51 -4 102 -44 144 -155 164 -53 10 -149 13
-157 5z"/>
<path d="M4576 4829 c-16 -4 -33 -6 -37 -3 -4 2 -10 0 -14 -6 -4 -6 -10 -8
-15 -5 -5 3 -11 2 -14 -3 -6 -10 16 -11 159 -12 97 0 190 4 220 10 6 1 -6 6
-25 11 -47 13 -238 19 -274 8z"/>
<path d="M4443 4791 c-12 -9 -16 -31 -16 -86 1 -89 52 -176 132 -223 40 -23
57 -27 126 -27 85 0 119 12 178 65 63 55 96 169 74 252 -6 21 -12 26 -30 22
-38 -9 -360 -13 -409 -5 -26 4 -51 5 -55 2z"/>
<path d="M4327 4390 c-42 -35 -114 -99 -149 -132 -10 -10 -22 -18 -28 -18 -5
0 -10 -5 -10 -12 0 -6 -31 -41 -69 -77 -76 -73 -92 -98 -86 -130 6 -33 22 -51
184 -216 83 -85 152 -160 152 -167 1 -7 2 -31 3 -53 l1 -39 325 -1 c179 0 335
1 346 3 21 4 22 6 20 258 0 140 1 254 4 254 14 -1 37 -28 159 -190 73 -96 142
-188 154 -204 60 -78 60 -79 24 -119 -75 -84 -113 -130 -121 -149 -12 -23 -13
-22 253 -241 102 -85 104 -86 127 -69 13 9 24 20 24 24 0 4 6 13 13 20 6 7 70
83 141 168 71 85 147 177 170 204 22 26 43 53 45 58 2 6 -9 21 -24 34 -16 13
-25 27 -22 30 4 4 -2 19 -12 33 -10 14 -16 31 -14 37 2 6 -17 28 -43 50 -25
21 -60 51 -77 66 -20 17 -34 23 -38 16 -5 -7 -14 -6 -29 5 -12 8 -29 13 -37
10 -8 -3 -28 4 -44 16 l-30 22 -32 -34 c-18 -18 -48 -53 -68 -77 l-35 -43 -67
87 c-37 47 -67 91 -67 96 0 5 -6 13 -13 17 -7 4 -30 33 -52 63 -22 30 -44 60
-50 67 -62 74 -76 100 -61 112 12 10 1 29 -61 111 -95 127 -113 140 -206 146
-39 2 -77 1 -82 -3 -6 -5 -16 -26 -23 -48 -49 -156 -92 -304 -96 -328 -3 -15
-7 -35 -10 -45 -3 -9 -8 -30 -11 -47 -15 -76 -15 -96 1 -120 9 -14 14 -25 10
-25 -3 0 -1 -11 4 -25 5 -14 6 -25 2 -25 -4 0 -7 -11 -7 -25 0 -14 3 -25 6
-25 8 0 -1 -50 -10 -51 -3 0 -14 -2 -23 -4 -15 -3 -18 4 -18 45 0 40 -4 50
-20 55 -11 3 -25 16 -31 27 -9 16 -7 26 10 48 20 28 20 29 2 67 -24 48 -88
230 -95 269 -3 16 -12 56 -22 89 -9 33 -17 67 -19 76 -2 9 -9 34 -16 57 l-12
41 -49 -2 c-41 -1 -57 -8 -91 -37z m766 -135 c62 -93 74 -125 47 -125 -5 0
-22 21 -37 48 -15 26 -30 49 -33 52 -37 34 -76 130 -52 130 4 0 38 -47 75
-105z m-743 81 c0 -8 -39 -50 -87 -95 -71 -66 -89 -78 -101 -69 -12 10 -6 20
38 58 29 25 69 62 89 82 38 39 61 48 61 24z m-26 -326 c1 -61 0 -110 -2 -110
-4 0 -122 120 -122 124 0 8 39 46 46 45 19 -3 34 2 34 11 0 12 33 48 39 43 3
-2 5 -53 5 -113z m1341 -183 c12 -10 14 -16 7 -21 -7 -4 -12 -11 -12 -15 0 -5
46 -46 103 -92 56 -46 113 -93 126 -105 19 -18 28 -20 41 -12 13 8 21 8 33 -3
13 -12 10 -20 -32 -69 -25 -30 -53 -63 -61 -74 -8 -10 -21 -24 -27 -31 -7 -8
-13 -16 -13 -18 0 -3 -15 -22 -34 -43 -19 -22 -53 -61 -76 -89 -89 -108 -123
-145 -129 -145 -3 0 -20 14 -38 30 -18 17 -35 30 -38 30 -3 0 -18 12 -33 28
-15 15 -42 38 -60 51 -18 12 -49 38 -70 56 -20 19 -50 45 -67 58 l-29 25 54
63 c92 109 96 112 119 100 24 -13 45 -6 93 31 41 32 45 57 17 98 -17 25 -17
27 13 60 17 19 42 50 55 68 29 36 32 37 58 19z"/>
<path d="M5617 3596 c-18 -18 -12 -52 11 -61 9 -3 24 3 36 15 16 16 18 24 10
38 -15 23 -38 26 -57 8z m37 -2 c22 -8 20 -31 -4 -44 -15 -8 -21 -6 -29 8 -7
13 -7 22 1 30 14 14 12 14 32 6z"/>
<path d="M5749 3593 c-9 -2 -22 -15 -30 -29 -11 -21 -11 -27 1 -34 11 -7 7
-10 -13 -15 -15 -4 -27 -11 -27 -16 0 -6 9 -5 20 1 11 6 26 10 33 8 14 -3 77
22 77 31 0 16 -47 58 -61 54z m41 -49 c0 -6 -11 -16 -24 -22 -20 -9 -25 -7
-34 13 -9 20 -7 26 11 38 19 13 23 12 34 -2 7 -9 13 -21 13 -27z"/>
<path d="M5545 3552 c-7 -8 7 -32 16 -26 5 3 9 -1 10 -8 0 -12 17 18 18 34 1
7 -37 7 -44 0z"/>
<path d="M5462 3499 c6 -4 16 -5 22 -2 5 3 6 1 2 -5 -4 -7 -12 -12 -17 -12 -6
0 -18 -7 -27 -16 -13 -13 -14 -22 -5 -45 7 -17 7 -31 2 -34 -5 -4 -4 -11 1
-18 6 -7 17 -21 25 -32 13 -20 14 -20 39 4 14 14 26 31 26 38 0 8 5 11 10 8 6
-3 10 0 10 8 0 19 29 30 45 17 9 -7 20 -4 38 11 l27 20 -22 29 c-19 27 -22 28
-44 14 -20 -14 -23 -14 -29 5 -3 12 -11 21 -16 21 -6 0 -5 -8 1 -20 6 -11 8
-25 5 -30 -3 -6 -1 -10 4 -10 6 0 11 -6 11 -14 0 -10 -7 -13 -20 -11 -11 2
-18 0 -15 -4 3 -5 -1 -11 -9 -14 -8 -3 -17 1 -20 9 -5 13 -9 13 -30 -1 -23
-15 -25 -15 -31 6 -6 17 -2 27 15 41 28 23 41 23 34 1 -5 -15 -4 -15 4 -3 6 8
8 18 6 22 -3 4 0 8 5 8 6 0 11 4 11 10 0 5 -16 9 -35 8 -22 -1 -31 -4 -23 -9z
m169 -40 c9 -17 8 -23 -2 -30 -21 -13 -39 -11 -39 6 0 8 -6 15 -12 15 -14 1
20 30 34 30 4 0 12 -10 19 -21z m-121 -69 c8 -15 6 -24 -9 -39 -19 -19 -20
-19 -35 3 -13 21 -13 25 2 40 21 21 29 20 42 -4z"/>
<path d="M5654 3496 c-8 -20 -1 -29 20 -24 13 3 13 6 1 22 -13 17 -15 18 -21
2z"/>
<path d="M4510 4419 c0 -5 16 -66 35 -136 20 -71 38 -136 40 -147 7 -31 42
-128 64 -176 13 -30 20 -38 21 -25 1 11 3 27 6 35 2 8 8 38 14 65 6 28 15 64
20 81 10 30 15 48 26 104 3 13 10 30 16 37 6 7 8 13 5 13 -3 0 5 32 18 71 14
39 23 75 20 79 -6 10 -285 9 -285 -1z"/>
<path d="M4422 3505 c-18 -29 -24 -196 -26 -790 -2 -302 -6 -558 -11 -568 -4
-10 -12 -16 -18 -14 -8 2 -11 45 -9 133 2 71 5 365 7 654 1 289 6 540 10 558
7 30 6 32 -22 32 l-29 0 0 -700 c1 -554 4 -700 13 -700 7 0 13 -3 14 -7 7 -78
21 -87 131 -88 125 -1 132 1 152 43 15 31 17 77 16 420 0 211 -3 388 -5 393
-3 4 -2 10 3 13 5 3 9 0 9 -7 10 -264 14 -391 19 -522 8 -251 9 -260 30 -296
l20 -34 108 -3 c118 -4 146 7 146 54 0 12 5 24 11 26 8 3 12 111 15 353 2 193
6 509 8 703 l5 352 -31 0 c-27 0 -30 -3 -23 -22 4 -13 9 -216 11 -453 2 -236
4 -461 5 -500 0 -38 0 -74 -1 -80 -2 -5 -2 -13 -1 -17 0 -4 2 -73 3 -154 3
-133 1 -147 -15 -150 -10 -1 -17 5 -18 14 0 10 -2 274 -4 587 -3 567 -9 753
-23 767 -12 12 -493 15 -500 3z"/>
</g>
</svg>
